<svg width="1000" height="1000" viewBox="0 0 1000 1000" fill="none" xmlns="http://www.w3.org/2000/svg">
<rect width="1000" height="1000" fill="black"/>
<path fill-rule="evenodd" clip-rule="evenodd" d="M710.505 382.498L707.138 376.497C702.793 369.241 696.666 363.211 689.336 358.976L527.923 266.091C520.614 261.86 512.318 259.625 503.867 259.61H496.892C488.442 259.625 480.145 261.86 472.836 266.091L311.423 359.216C304.134 363.423 298.079 369.464 293.863 376.737L290.495 382.738C286.255 390.03 284.015 398.308 284 406.74V592.75C284.015 601.181 286.255 609.459 290.495 616.751L293.863 622.752C298.188 629.941 304.218 635.958 311.423 640.272L473.077 733.158C480.348 737.477 488.67 739.719 497.133 739.638H503.867C512.318 739.624 520.614 737.389 527.923 733.158L689.336 640.033C696.698 635.922 702.776 629.858 706.897 622.512L710.505 616.511C714.694 609.198 716.929 600.934 717 592.51V406.499C716.986 398.068 714.745 389.79 710.505 382.498Z" fill="url(#paint0_linear_4906_58058)"/>
<path d="M501.311 314.748L346.436 408.808L506.987 499.624V684.501L661.861 590.441V408.808L501.311 314.748Z" fill="white"/>
<path fill-rule="evenodd" clip-rule="evenodd" d="M677.47 400.7L674.633 395.632C670.972 389.504 665.809 384.411 659.631 380.834L523.61 302.383C517.45 298.811 510.459 296.923 503.338 296.91H497.459C490.339 296.923 483.347 298.811 477.187 302.383L341.166 381.037C335.023 384.589 329.92 389.692 326.367 395.835L323.529 400.903C319.957 407.062 318.069 414.054 318.056 421.175V578.278C318.069 585.399 319.957 592.39 323.529 598.55L326.367 603.618C330.012 609.69 335.094 614.771 341.166 618.415L477.39 696.866C483.518 700.513 490.531 702.407 497.662 702.339H503.338C510.459 702.327 517.45 700.439 523.61 696.866L659.631 618.213C665.835 614.741 670.957 609.619 674.43 603.415L677.47 598.346C681 592.17 682.884 585.19 682.944 578.076V420.972C682.932 413.851 681.044 406.859 677.47 400.7ZM497.459 337.453H503.338L622.129 405.971L500.5 476.11L378.871 405.971L497.459 337.453ZM520.771 651.661L639.359 583.143L642.4 578.076V441.04L520.771 511.382V651.661Z" fill="black"/>
<defs>
<linearGradient id="paint0_linear_4906_58058" x1="292.109" y1="389.348" x2="725.919" y2="510.977" gradientUnits="userSpaceOnUse">
<stop offset="0.233827" stop-color="#F86F4D"/>
<stop offset="0.604167" stop-color="#B853B1"/>
<stop offset="0.958333" stop-color="#533BFA"/>
</linearGradient>
</defs>
</svg>
